<svg width="576" height="594" xmlns="http://www.w3.org/2000/svg" xmlns:xlink="http://www.w3.org/1999/xlink" xml:space="preserve" overflow="hidden"><g transform="translate(-1727 -920)"><g><g><g><path d="M287.995 57.6005C242.167 57.6005 198.214 75.8061 165.808 108.213 133.402 140.619 115.196 184.571 115.196 230.4L115.196 333.677 94.8345 354.038C90.808 358.065 88.066 363.197 86.9553 368.784 85.8446 374.369 86.4148 380.16 88.5943 385.421 90.7735 390.684 94.464 395.179 99.1989 398.345 103.934 401.51 109.501 403.2 115.196 403.2L460.795 403.2C466.49 403.2 472.058 401.51 476.793 398.345 481.529 395.179 485.22 390.684 487.399 385.421 489.578 380.16 490.147 374.369 489.036 368.784 487.927 363.197 485.184 358.065 481.157 354.038L460.795 333.677 460.795 230.4C460.795 184.571 442.591 140.619 410.184 108.213 377.777 75.8061 333.825 57.6005 287.995 57.6005ZM287.995 518.4C265.082 518.4 243.106 509.297 226.902 493.094 210.699 476.892 201.596 454.915 201.596 432L374.395 432C374.395 454.915 365.294 476.892 349.089 493.094 332.887 509.297 310.91 518.4 287.995 518.4Z" fill="#3F3F46" transform="matrix(1 0 0 1 1727 938)"/></g></g></g><path d="M2056.5 1011.5C2056.5 962.347 2096.35 922.5 2145.5 922.5 2194.65 922.5 2234.5 962.347 2234.5 1011.5 2234.5 1060.65 2194.65 1100.5 2145.5 1100.5 2096.35 1100.5 2056.5 1060.65 2056.5 1011.5Z" stroke="#34D399" stroke-width="4.58333" stroke-miterlimit="8" fill="#34D399" fill-rule="evenodd"/></g></svg>