<svg width="24" height="24" viewBox="0 0 24 24" fill="none" xmlns="http://www.w3.org/2000/svg">
<g id="bell">
<path id="Vector" d="M11.9998 2.40002C10.0903 2.40002 8.25893 3.15859 6.90867 4.50886C5.55841 5.85912 4.79984 7.69047 4.79984 9.60002V13.9032L3.95144 14.7516C3.78367 14.9194 3.66942 15.1332 3.62314 15.366C3.57686 15.5987 3.60062 15.84 3.69143 16.0592C3.78223 16.2785 3.936 16.4658 4.13329 16.5977C4.33058 16.7296 4.56254 16.8 4.79984 16.8H19.1998C19.4371 16.8 19.6691 16.7296 19.8664 16.5977C20.0637 16.4658 20.2175 16.2785 20.3083 16.0592C20.3991 15.84 20.4228 15.5987 20.3765 15.366C20.3303 15.1332 20.216 14.9194 20.0482 14.7516L19.1998 13.9032V9.60002C19.1998 7.69047 18.4413 5.85912 17.091 4.50886C15.7407 3.15859 13.9094 2.40002 11.9998 2.40002ZM11.9998 21.6C11.0451 21.6 10.1294 21.2207 9.45426 20.5456C8.77913 19.8705 8.39984 18.9548 8.39984 18H15.5998C15.5998 18.9548 15.2206 19.8705 14.5454 20.5456C13.8703 21.2207 12.9546 21.6 11.9998 21.6Z" fill="#3F3F46"/>
</g>
</svg>
