<svg width="20" height="20" viewBox="0 0 20 20" fill="none" xmlns="http://www.w3.org/2000/svg">
<g id="chevron-right">
<path id="Vector" fill-rule="evenodd" clip-rule="evenodd" d="M7.29303 14.707C7.10556 14.5195 7.00024 14.2651 7.00024 14C7.00024 13.7348 7.10556 13.4805 7.29303 13.293L10.586 9.99998L7.29303 6.70698C7.11087 6.51838 7.01008 6.26578 7.01236 6.00358C7.01463 5.74138 7.1198 5.49057 7.30521 5.30516C7.49062 5.11975 7.74143 5.01458 8.00363 5.01231C8.26583 5.01003 8.51843 5.11082 8.70703 5.29298L12.707 9.29298C12.8945 9.48051 12.9998 9.73482 12.9998 9.99998C12.9998 10.2651 12.8945 10.5195 12.707 10.707L8.70703 14.707C8.5195 14.8945 8.26519 14.9998 8.00003 14.9998C7.73487 14.9998 7.48056 14.8945 7.29303 14.707Z" fill="#404040"/>
</g>
</svg>
