<svg width="20" height="20" viewBox="0 0 20 20" fill="none" xmlns="http://www.w3.org/2000/svg">
<g id="chevron-double-right">
<path id="Vector" fill-rule="evenodd" clip-rule="evenodd" d="M10.2931 15.707C10.1056 15.5195 10.0003 15.2652 10.0003 15C10.0003 14.7349 10.1056 14.4805 10.2931 14.293L14.5861 10L10.2931 5.70702C10.1976 5.61477 10.1214 5.50443 10.069 5.38242C10.0166 5.26042 9.98898 5.1292 9.98783 4.99642C9.98668 4.86364 10.012 4.73196 10.0623 4.60907C10.1125 4.48617 10.1868 4.37452 10.2807 4.28062C10.3746 4.18673 10.4862 4.11248 10.6091 4.0622C10.732 4.01192 10.8637 3.98662 10.9965 3.98777C11.1293 3.98892 11.2605 4.01651 11.3825 4.06892C11.5045 4.12133 11.6148 4.19751 11.7071 4.29302L16.7071 9.29302C16.8946 9.48055 16.9999 9.73486 16.9999 10C16.9999 10.2652 16.8946 10.5195 16.7071 10.707L11.7071 15.707C11.5196 15.8945 11.2652 15.9998 11.0001 15.9998C10.7349 15.9998 10.4806 15.8945 10.2931 15.707Z" fill="#404040"/>
<path id="Vector_2" fill-rule="evenodd" clip-rule="evenodd" d="M4.29303 15.707C4.10556 15.5195 4.00024 15.2651 4.00024 15C4.00024 14.7348 4.10556 14.4805 4.29303 14.293L8.58603 9.99998L4.29303 5.70698C4.11087 5.51838 4.01008 5.26578 4.01236 5.00358C4.01463 4.74138 4.1198 4.49057 4.30521 4.30516C4.49062 4.11975 4.74143 4.01458 5.00363 4.01231C5.26583 4.01003 5.51843 4.11082 5.70703 4.29298L10.707 9.29298C10.8945 9.48051 10.9998 9.73482 10.9998 9.99998C10.9998 10.2651 10.8945 10.5195 10.707 10.707L5.70703 15.707C5.5195 15.8945 5.26519 15.9998 5.00003 15.9998C4.73487 15.9998 4.48056 15.8945 4.29303 15.707Z" fill="#404040"/>
</g>
</svg>
