<svg width="20" height="20" viewBox="0 0 20 20" fill="none" xmlns="http://www.w3.org/2000/svg">
<g id="chevron-double-left">
<path id="Vector" fill-rule="evenodd" clip-rule="evenodd" d="M15.707 15.707C15.5195 15.8945 15.2652 15.9998 15 15.9998C14.7349 15.9998 14.4806 15.8945 14.293 15.707L9.29303 10.707C9.10556 10.5195 9.00024 10.2652 9.00024 10C9.00024 9.73486 9.10556 9.48055 9.29303 9.29302L14.293 4.29302C14.3853 4.19751 14.4956 4.12133 14.6176 4.06892C14.7396 4.01651 14.8709 3.98892 15.0036 3.98777C15.1364 3.98662 15.2681 4.01192 15.391 4.0622C15.5139 4.11248 15.6255 4.18673 15.7194 4.28062C15.8133 4.37452 15.8876 4.48617 15.9379 4.60907C15.9881 4.73196 16.0134 4.86364 16.0123 4.99642C16.0111 5.1292 15.9835 5.26042 15.9311 5.38242C15.8787 5.50443 15.8025 5.61477 15.707 5.70702L11.414 10L15.707 14.293C15.8945 14.4805 15.9998 14.7349 15.9998 15C15.9998 15.2652 15.8945 15.5195 15.707 15.707ZM9.70703 15.707C9.5195 15.8945 9.26519 15.9998 9.00003 15.9998C8.73487 15.9998 8.48056 15.8945 8.29303 15.707L3.29303 10.707C3.10556 10.5195 3.00024 10.2652 3.00024 10C3.00024 9.73486 3.10556 9.48055 3.29303 9.29302L8.29303 4.29302C8.48163 4.11086 8.73423 4.01007 8.99643 4.01235C9.25863 4.01462 9.50944 4.11979 9.69485 4.3052C9.88026 4.49061 9.98543 4.74142 9.9877 5.00362C9.98998 5.26582 9.88919 5.51842 9.70703 5.70702L5.41403 10L9.70703 14.293C9.8945 14.4805 9.99982 14.7349 9.99982 15C9.99982 15.2652 9.8945 15.5195 9.70703 15.707Z" fill="#404040"/>
</g>
</svg>
