<svg width="100" height="24" viewBox="0 0 100 24" fill="none" xmlns="http://www.w3.org/2000/svg">
<rect width="100" height="24" fill="white"/>
<path d="M24.6029 24H0.258374V17.6268H8.00957V16.3062C6.66985 16.0383 5.50239 15.6459 4.50718 15.1292C3.51195 14.6124 2.67942 14.0096 2.00957 13.3206C1.33971 12.6124 0.832537 11.8373 0.488039 10.9952C0.16268 10.1531 0 9.27273 0 8.35407C0 7.20574 0.258374 6.12441 0.775121 5.11005C1.29187 4.09569 2.06699 3.21531 3.10048 2.4689C4.13398 1.70335 5.42584 1.10048 6.97608 0.660288C8.54545 0.220096 10.3636 0 12.4306 0C14.4976 0 16.3062 0.220096 17.8565 0.660288C19.4258 1.10048 20.7273 1.70335 21.7608 2.4689C22.7943 3.21531 23.5694 4.09569 24.0861 5.11005C24.6029 6.12441 24.8613 7.20574 24.8613 8.35407C24.8613 9.27273 24.689 10.1531 24.3445 10.9952C24.0191 11.8373 23.5216 12.6124 22.8517 13.3206C22.1818 14.0096 21.3492 14.6124 20.3541 15.1292C19.3588 15.6459 18.1914 16.0383 16.8517 16.3062V17.6268H24.6029V24ZM9.01436 7.26316L8.69857 8.1244C9.25358 8.29665 9.85645 8.44977 10.5072 8.58373C11.1579 8.69857 11.8182 8.79427 12.488 8.87081C13.1579 8.92823 13.8182 8.97607 14.4689 9.01435C15.1196 9.05264 15.7129 9.07177 16.2488 9.07177V8.21053C15.1579 8.21053 13.9522 8.13398 12.6316 7.98086C11.311 7.80861 10.1053 7.56937 9.01436 7.26316ZM25.2322 24V16.3062C25.6915 16.3062 26.1987 16.3062 26.7537 16.3062C27.3279 16.2871 27.9021 16.2584 28.4762 16.2201C29.0695 16.1627 29.6342 16.0957 30.17 16.0191C30.7251 15.9426 31.2035 15.8373 31.6054 15.7034V14.8421C31.2226 14.9569 30.7538 15.0526 30.1987 15.1292C29.6629 15.2057 29.0982 15.2727 28.5049 15.3301C27.9117 15.3684 27.3183 15.4067 26.725 15.445C26.1509 15.4641 25.6532 15.4737 25.2322 15.4737V8.44019C25.6341 8.44019 26.1222 8.43062 26.6963 8.41148C27.2705 8.39235 27.8543 8.36364 28.4475 8.32536C29.0408 8.28708 29.6149 8.23923 30.17 8.18182C30.7251 8.1244 31.2035 8.04785 31.6054 7.95215V7.09091C31.2035 7.16746 30.7251 7.23445 30.17 7.29187C29.6149 7.34928 29.0408 7.4067 28.4475 7.46412C27.8543 7.5024 27.2705 7.53111 26.6963 7.55024C26.1412 7.56937 25.6532 7.57895 25.2322 7.57895V0.430621H39.615V11.2536C39.615 13.7799 39.3183 15.866 38.725 17.512C38.1318 19.1579 37.2322 20.4593 36.0265 21.4163C34.8398 22.3733 33.347 23.043 31.548 23.4258C29.749 23.8087 27.6437 24 25.2322 24ZM49.5767 24H40.7059V0.430621H49.5767V24Z" fill="#10B981"/>
<path d="M50.2061 12.6019V0.429688H74.5506V7.80768H58.8472V8.84117H74.5506V16.2192H66.7994V17.6259H74.5506V23.9991H50.2061V17.6259H57.9573V16.2192H53.8233C52.675 16.2192 51.785 15.9034 51.1534 15.2718C50.5218 14.6402 50.2061 13.7503 50.2061 12.6019ZM99.5244 23.9991H91.2277V0.429688H99.5244V23.9991ZM75.1799 23.9991V16.5062C76.4047 16.3723 77.4382 16.1043 78.2804 15.7024C79.1416 15.3005 79.8306 14.7263 80.3473 13.9799C80.8832 13.2335 81.266 12.3053 81.4957 11.1952C81.7253 10.0852 81.8402 8.75505 81.8402 7.20481C80.8067 7.47276 79.7254 7.65456 78.5961 7.75026C77.4669 7.84596 76.3282 7.87467 75.1799 7.83639V0.429688H90.1368V8.00864C90.1368 10.7072 89.7923 13.0326 89.1033 14.9847C88.4334 16.9369 87.4479 18.5637 86.1464 19.8651C84.8642 21.1473 83.2946 22.1234 81.4382 22.7933C79.6009 23.4632 77.5149 23.8652 75.1799 23.9991Z" fill="#262626"/>
</svg>
